<svg width="218" height="132" viewBox="0 0 218 132" fill="none" xmlns="http://www.w3.org/2000/svg">
<path d="M2.58515 111.175L1.93886 111.626H1.29258L0.646288 112.076V112.526L0 112.976V115.677L0.646288 116.127V116.577L1.93886 117.477H116.332L116.978 117.027H117.624L118.271 116.577V116.127L118.917 115.677V112.526L118.271 112.076V111.626H117.624L116.978 111.175H20.0349L19.3886 111.626H14.8646L14.2183 111.175L13.5721 111.626H11.6332L10.9869 111.175H2.58515Z" fill="url(#paint0_linear_229_287)"/>
<path d="M93.7118 102.173L93.0655 102.624H80.7861L80.1398 103.074H56.2271L55.5808 102.624H10.9869L10.3406 103.074H9.69436L9.04807 103.524V103.974L8.40178 104.424V104.874L7.75549 105.324V107.125L8.40178 107.575V108.025L9.69436 108.925H107.284L107.93 108.475H109.223L111.162 107.125V103.524L109.869 102.624H109.223L108.576 102.173H93.7118Z" fill="url(#paint1_linear_229_287)"/>
<path d="M69.1529 94.0717L68.5066 94.5218H67.8603L67.214 94.9719H66.5677V95.422L65.2751 96.3222V99.0228L66.5677 99.923H67.214L67.8603 100.373H77.5546L78.2009 99.923H93.0655L93.7118 100.373H99.5284L100.175 99.923H100.821L101.467 99.4729V99.0228L102.114 98.5727V96.7723L101.467 96.3222V95.8721L99.5284 94.5218H98.8821L98.2358 94.0717H69.1529Z" fill="url(#paint2_linear_229_287)"/>
<path d="M21.3275 94.0717L20.6812 94.5218H20.0349L18.7424 95.422V95.8721L18.0961 96.3222V98.5727L18.7424 99.0228V99.4729L19.3886 99.923H20.0349L20.6812 100.373H53.6419L54.2882 99.923H54.9345V99.4729L55.5808 99.0228V97.2224L54.9345 96.7723V95.8721L54.2882 95.422H53.6419L52.9956 94.9719H52.3493L51.7031 94.5218H34.2533L33.607 94.0717H21.3275Z" fill="url(#paint3_linear_229_287)"/>
<path d="M72.3842 36.9084L71.7379 37.3586V49.9614L71.0916 50.4115V71.5664L70.4454 72.0165V89.5705L69.7991 90.0206V91.8211H82.7248V84.1693L82.0785 83.7192V72.4666L81.4323 72.0165V58.0633L80.786 57.6132V43.2099L81.4323 42.7598V40.5093L82.0785 40.0592V39.6091L82.7248 39.159L83.3711 39.6091V40.0592L84.0174 40.5093V67.9656L84.6637 68.4157V81.0186L85.31 81.4687V91.8211H89.1877V82.819L88.5414 82.3689V71.5664L87.8951 71.1163V40.9594L88.5414 40.5093V39.6091L89.1877 39.159L90.4803 40.0592V67.9656L91.1266 68.4157V81.0186L91.7729 81.4687V91.371L92.4192 91.8211H96.2969V91.371L95.6506 90.9209L96.2969 90.4707L95.6506 90.0206V64.8149L95.0043 64.3648V37.3586H73.0305L72.3842 36.9084Z" fill="url(#paint4_linear_229_287)"/>
<path d="M28.4367 36.9084L27.7904 37.3586V42.7598L27.1441 43.2099V49.9614L26.4978 50.4115V56.713L25.8516 57.1631V63.0144L25.2053 63.4645V70.2161L24.559 70.6662V76.9676L23.9127 77.4178V83.7192L23.2664 84.1693V90.4707L22.6201 90.9209V91.8211H27.1441V90.0206L27.7904 89.5705V83.7192L28.4367 83.2691V76.9676L29.083 76.5175V69.766L29.7293 69.3159V62.5643L30.3756 62.1142V54.0124L31.0219 53.5623V43.2099L31.6682 42.7598V39.6091L32.9607 38.7089L33.607 39.159V41.8596L34.2533 42.3097V44.1101L33.607 44.5602V54.4625L32.9607 54.9126V62.1142L32.3144 62.5643V69.766L31.6682 70.2161V76.9676L31.0219 77.4178V83.7192L30.3756 84.1693V90.4707L29.7293 90.9209V91.8211H33.607V86.4198L34.2533 85.9697V81.0186L34.8996 80.5685V75.6173L35.5459 75.1672V70.2161L36.1922 69.766V64.8149L36.8385 64.3648V58.5134L37.4847 58.0633V51.3118L38.131 50.8617V42.3097L38.7773 41.8596V39.159L39.4236 38.7089H40.0699L40.7162 39.159V53.5623L40.0699 54.0124V60.7639L39.4236 61.214V65.7151L38.7773 66.1652V70.6662L38.131 71.1163V76.0674L37.4847 76.5175V81.9188L36.8385 82.3689V87.32L36.1922 87.7701V91.8211H50.4105V37.3586H29.083L28.4367 36.9084Z" fill="url(#paint5_linear_229_287)"/>
<path d="M68.5065 29.2567L67.8602 29.7068H67.2139L66.5676 30.1569V33.3076L67.2139 33.7577V34.2079H67.8602L68.5065 34.658H98.882L100.175 33.7577V33.3076L100.821 32.8575V31.0571L98.882 29.7068H97.5895L96.9432 29.2567H68.5065Z" fill="url(#paint6_linear_229_287)"/>
<path d="M22.6201 29.2567L21.9738 29.7068H21.3275L20.0349 30.607V33.3076L20.6812 33.7577V34.2079L21.3275 34.658H21.9738L22.6201 35.1081H51.703L52.3493 34.658H52.9956L54.2882 33.7577V33.3076L54.9345 32.8575V30.1569L54.2882 29.7068H45.2402L44.5939 29.2567H22.6201Z" fill="url(#paint7_linear_229_287)"/>
<path d="M213.921 18.9043L211.983 20.2546H211.336L208.751 22.055H208.105L196.472 30.1569V30.607L193.886 32.4074V32.8575L191.948 34.2078V34.6579L191.301 35.108V35.5581L190.655 36.0082V36.4583L190.009 36.9084V37.3585L189.362 37.8086V38.2587L188.716 38.7088V39.6091L188.07 40.0592V41.8596L187.424 42.3097L186.777 41.8596V39.1589L187.424 38.7088V37.3585L186.777 37.8086V38.2587L183.546 40.5093V40.9594L181.607 42.3097V42.7598L179.668 44.1101V44.5602L177.729 45.9105V46.3606L177.083 46.8107V47.2608L175.79 48.161V48.6111L175.144 49.0612V49.5113L174.498 49.9614V50.4115L173.852 50.8616V51.3117L173.205 51.7618V52.2119L172.559 52.6621V53.5623L171.913 54.0124V54.9126L171.266 55.3627V62.1142L170.62 62.5643L169.974 62.1142V61.6641L169.328 61.214V60.7639L168.681 60.3138V59.4136L168.035 58.9635V58.5134L167.389 58.9635V59.8637L166.742 60.3138V61.214L166.096 61.6641V62.5643L165.45 63.0144V63.9146L164.804 64.3647V65.2649L164.157 65.7151V66.6153L163.511 67.0654V67.9656L162.865 68.4157V69.766L162.218 70.2161V71.5664L161.572 72.0165V73.3668L160.926 73.8169V75.1672L160.279 75.6173V77.8678L159.633 78.3179V80.5685L158.987 81.0186V83.7192L158.341 84.1693V88.2202L157.694 88.6703V94.5217L158.341 94.9718V96.3221L158.987 96.7722V97.2223L159.633 97.6724V98.5726L160.279 99.0227V99.9229L160.926 100.373V100.823L161.572 101.273V101.723L162.218 102.173V102.624L162.865 103.074V105.324L162.218 105.774V111.175L161.572 111.626V128.73L162.218 129.18V131.43L164.157 130.08V129.63L168.681 126.479V125.129L168.035 124.679V123.778L167.389 123.328V122.428L166.742 121.978V119.727L166.096 119.277V113.426L166.742 112.976V106.674L167.389 106.224V102.173L168.035 101.723V98.1225L168.681 97.6724V94.9718L169.328 94.5217V91.821L169.974 91.3709V89.5705L170.62 89.1204V87.32L171.266 86.8699V85.0695L171.913 84.6194V82.819L172.559 82.3689V81.4687L173.205 81.0186V79.2182L173.852 78.768V77.8678L174.498 77.4177V76.0674L175.144 75.6173V74.7171L175.79 74.267V73.3668L176.437 72.9167V72.0165L177.083 71.5664V70.6662L177.729 70.2161V69.3159L178.376 68.8658V67.9656L179.022 67.5155V66.6153L179.668 66.1652V65.7151L180.314 65.2649V64.3647L180.961 63.9146V63.0144L181.607 62.5643V62.1142L182.253 61.6641V61.214L182.9 60.7639V59.8637L183.546 59.4136V58.9635L184.192 58.5134V57.6132L184.838 57.1631V56.713L185.485 56.2629V55.8128L186.131 55.3627V54.9126L186.777 54.4625V54.0124L187.424 53.5623V52.6621L188.07 52.2119V51.7618L188.716 51.3117V50.8616L189.362 50.4115V49.9614L190.009 49.5113V49.0612L190.655 48.6111V47.7109L191.301 47.2608V46.8107L192.594 45.9105V45.4604L193.24 45.0103L193.886 45.4604V46.3606L192.594 47.2608V47.7109L191.948 48.161V49.0612L191.301 49.5113V49.9614L190.655 50.4115V50.8616L190.009 51.3117V51.7618L189.362 52.2119V53.1122L188.716 53.5623V54.0124L188.07 54.4625V54.9126L187.424 55.3627V56.2629L186.777 56.713V57.6132L186.131 58.0633V58.9635L185.485 59.4136V59.8637L184.838 60.3138V61.214L184.192 61.6641V62.5643L183.546 63.0144V63.4645L182.9 63.9146V64.8148L182.253 65.2649V66.6153L181.607 67.0654V67.9656L180.961 68.4157V69.3159L180.314 69.766V70.6662L179.668 71.1163V72.4666L179.022 72.9167V73.8169L178.376 74.267V75.6173L177.729 76.0674V77.4177L177.083 77.8678V79.2182L176.437 79.6683V81.0186L175.79 81.4687V83.2691L175.144 83.7192V85.5196L174.498 85.9697V87.7701L173.852 88.2202V90.0206L173.205 90.4707V93.1714L172.559 93.6215V95.4219L171.913 95.872V98.5726L171.266 99.0227V102.173L170.62 102.624V106.224L169.974 106.674V112.076L169.328 112.526V119.727V118.827L169.974 118.377V117.477L170.62 117.027V116.127L171.266 115.677V114.776L171.913 114.326V113.876L172.559 113.426V112.976L173.205 112.526V112.076L173.852 111.626V111.175L180.314 106.674H180.961L182.253 105.774H182.9L183.546 105.324H184.192L184.838 104.874H185.485L186.131 104.424H187.424L188.07 103.974H189.362L190.009 103.524H192.594L193.24 103.074H195.179H190.655L190.009 102.624H185.485L184.838 103.074H184.192L183.546 102.624L186.777 100.373V99.9229L188.07 99.0227V98.5726L188.716 98.1225V97.6724L189.362 97.2223V96.7722L190.009 96.3221V95.872L190.655 95.4219V94.9718L191.301 94.5217V94.0716L190.009 94.9718L189.362 94.5217V94.0716L191.948 92.2712V91.821L193.886 90.4707V90.0206L194.533 89.5705V89.1204L195.179 88.6703V88.2202L196.472 87.32V86.8699L197.118 86.4198V85.9697L197.764 85.5196V85.0695L198.41 84.6194V83.7192L199.057 83.2691V82.819L199.703 82.3689V81.4687L200.349 81.0186V80.5685L200.996 80.1184V79.2182L201.642 78.768V78.3179L202.288 77.8678V76.5175L202.935 76.0674V75.1672L203.581 74.7171V73.8169L204.227 73.3668V72.0165L204.873 71.5664V69.766L205.52 69.3159V67.9656L206.166 67.5155V65.7151H205.52L204.227 66.6153H203.581L202.935 67.0654H202.288L200.996 67.9656H200.349L199.703 68.4157H199.057L198.41 68.8658H197.764L197.118 68.4157L199.703 66.6153H200.349V66.1652L200.996 65.7151H201.642L207.459 61.6641V61.214L209.397 59.8637V58.9635L210.044 58.5134V58.0633L210.69 57.6132V56.713L211.336 56.2629V55.8128L211.983 55.3627V54.9126L212.629 54.4625V53.1122L213.275 52.6621V51.7618L213.921 51.3117V50.4115L214.568 49.9614L213.921 50.4115L213.275 49.9614V49.5113L213.921 49.0612V48.6111L214.568 48.161V47.7109L215.214 47.2608V45.4604L215.86 45.0103V43.2099L216.507 42.7598V40.5093L217.153 40.0592V37.3585L217.799 36.9084V26.106L217.153 25.6558V23.4053L216.507 22.9552V21.6049L215.86 21.1548V19.8045L215.214 19.3544V18.9043H213.921Z" fill="url(#paint8_linear_229_287)"/>
<path d="M61.3974 2.70056L60.7511 3.15066H60.1048L59.4585 3.60077H58.166L57.5197 4.05087H56.2271L55.5808 4.50098H54.2882L53.6419 4.95108H52.9956L52.3494 5.40118H51.0568L50.4105 5.85129H49.7642L49.1179 6.30139H47.8253L47.1791 6.75149H46.5328L45.8865 7.2016H44.5939L43.9476 7.6517H42.655L42.0087 8.1018H40.7162L40.0699 8.55191H39.4236L38.7773 9.00201H37.4847L36.8384 9.45211H35.5459L34.8996 9.90222H34.2533L33.607 10.3523H32.3144L31.6681 10.8024H31.0218L30.3756 11.2525H28.4367L27.7904 11.7026H27.1441L26.4978 12.1527H25.2053L24.559 12.6028H23.9127L23.2664 13.0529H21.9738L21.3275 13.503H20.6812L20.0349 13.9531H18.7424L18.0961 14.4033H16.8035L16.1572 14.8534H15.5109L14.8646 15.3035H13.5721L12.9258 15.7536H12.2795L10.9869 16.6538H10.3406V17.1039L9.69434 17.554V20.2546L10.3406 20.7047V21.1548L12.2795 22.5051H12.9258L13.5721 22.9552H15.5109L16.1572 23.4053H111.162L111.808 22.9552H112.454L113.747 22.055V18.9043L111.808 17.554H111.162L110.515 17.1039H109.869L109.223 16.6538H108.576L107.93 16.2037H107.284L106.638 15.7536H105.345L104.699 15.3035H104.052L103.406 14.8534H102.76L102.114 14.4033H100.821L100.175 13.9531H99.5284L98.8821 13.503H98.2358L97.5895 13.0529H96.9432L96.297 12.6028H95.6507L95.0044 12.1527H93.7118L93.0655 11.7026H92.4192L91.7729 11.2525H91.1267L90.4804 10.8024H89.1878L88.5415 10.3523H87.8952L87.2489 9.90222H86.6026L85.9563 9.45211H85.3101L84.6638 9.00201H84.0175L83.3712 8.55191H82.0786L81.4323 8.1018H80.786L80.1398 7.6517H79.4935L78.8472 7.2016H77.5546L76.9083 6.75149H76.262L75.6157 6.30139H74.9694L74.3232 5.85129H73.6769L73.0306 5.40118H71.738L71.0917 4.95108H70.4454L69.7991 4.50098H69.1529L68.5066 4.05087H67.8603L67.214 3.60077H65.9214L65.2751 3.15066H64.6288L63.9825 2.70056H61.3974Z" fill="url(#paint9_linear_229_287)"/>
<path d="M134.428 0V13.053L133.782 13.5031V27.0062L133.135 27.4563V42.7598L132.489 43.2099V63.4646L131.843 63.9147V109.375L132.489 109.825V113.876L133.135 114.326V115.677L133.782 116.127V116.577H135.074L135.721 116.127V115.677L136.367 115.226V113.426L137.013 112.976V104.424L137.659 103.974V57.6132L137.013 57.1631V36.0083L136.367 35.5582V25.2058L135.721 24.7557V13.5031L135.074 13.053V3.60083L134.428 3.15072V0Z" fill="url(#paint10_linear_229_287)"/>
<path d="M134.428 0V13.053L133.782 13.5031V27.0062L133.135 27.4563V42.7598L132.489 43.2099V63.4646L131.843 63.9147V109.375L132.489 109.825V113.876L133.135 114.326V115.677L133.782 116.127V116.577H135.074L135.721 116.127V115.677L136.367 115.226V113.426L137.013 112.976V104.424L137.659 103.974V57.6132L137.013 57.1631V36.0083L136.367 35.5582V25.2058L135.721 24.7557V13.5031L135.074 13.053V3.60083L134.428 3.15072V0Z" fill="url(#paint11_linear_229_287)"/>
<path d="M61.3974 2.70056L60.7511 3.15066H60.1048L59.4585 3.60077H58.166L57.5197 4.05087H56.2271L55.5808 4.50098H54.2882L53.6419 4.95108H52.9956L52.3494 5.40118H51.0568L50.4105 5.85129H49.7642L49.1179 6.30139H47.8253L47.1791 6.75149H46.5328L45.8865 7.2016H44.5939L43.9476 7.6517H42.655L42.0087 8.1018H40.7162L40.0699 8.55191H39.4236L38.7773 9.00201H37.4847L36.8384 9.45211H35.5459L34.8996 9.90222H34.2533L33.607 10.3523H32.3144L31.6681 10.8024H31.0218L30.3756 11.2525H28.4367L27.7904 11.7026H27.1441L26.4978 12.1527H25.2053L24.559 12.6028H23.9127L23.2664 13.0529H21.9738L21.3275 13.503H20.6812L20.0349 13.9531H18.7424L18.0961 14.4033H16.8035L16.1572 14.8534H15.5109L14.8646 15.3035H13.5721L12.9258 15.7536H12.2795L10.9869 16.6538H10.3406V17.1039L9.69434 17.554V20.2546L10.3406 20.7047V21.1548L12.2795 22.5051H12.9258L13.5721 22.9552H15.5109L16.1572 23.4053H111.162L111.808 22.9552H112.454L113.747 22.055V18.9043L111.808 17.554H111.162L110.515 17.1039H109.869L109.223 16.6538H108.576L107.93 16.2037H107.284L106.638 15.7536H105.345L104.699 15.3035H104.052L103.406 14.8534H102.76L102.114 14.4033H100.821L100.175 13.9531H99.5284L98.8821 13.503H98.2358L97.5895 13.0529H96.9432L96.297 12.6028H95.6507L95.0044 12.1527H93.7118L93.0655 11.7026H92.4192L91.7729 11.2525H91.1267L90.4804 10.8024H89.1878L88.5415 10.3523H87.8952L87.2489 9.90222H86.6026L85.9563 9.45211H85.3101L84.6638 9.00201H84.0175L83.3712 8.55191H82.0786L81.4323 8.1018H80.786L80.1398 7.6517H79.4935L78.8472 7.2016H77.5546L76.9083 6.75149H76.262L75.6157 6.30139H74.9694L74.3232 5.85129H73.6769L73.0306 5.40118H71.738L71.0917 4.95108H70.4454L69.7991 4.50098H69.1529L68.5066 4.05087H67.8603L67.214 3.60077H65.9214L65.2751 3.15066H64.6288L63.9825 2.70056H61.3974Z" fill="url(#paint12_linear_229_287)"/>
<path d="M213.921 18.9043L211.983 20.2546H211.336L208.751 22.055H208.105L196.472 30.1569V30.607L193.886 32.4074V32.8575L191.948 34.2078V34.6579L191.301 35.108V35.5581L190.655 36.0082V36.4583L190.009 36.9084V37.3585L189.362 37.8086V38.2587L188.716 38.7088V39.6091L188.07 40.0592V41.8596L187.424 42.3097L186.777 41.8596V39.1589L187.424 38.7088V37.3585L186.777 37.8086V38.2587L183.546 40.5093V40.9594L181.607 42.3097V42.7598L179.668 44.1101V44.5602L177.729 45.9105V46.3606L177.083 46.8107V47.2608L175.79 48.161V48.6111L175.144 49.0612V49.5113L174.498 49.9614V50.4115L173.852 50.8616V51.3117L173.205 51.7618V52.2119L172.559 52.6621V53.5623L171.913 54.0124V54.9126L171.266 55.3627V62.1142L170.62 62.5643L169.974 62.1142V61.6641L169.328 61.214V60.7639L168.681 60.3138V59.4136L168.035 58.9635V58.5134L167.389 58.9635V59.8637L166.742 60.3138V61.214L166.096 61.6641V62.5643L165.45 63.0144V63.9146L164.804 64.3647V65.2649L164.157 65.7151V66.6153L163.511 67.0654V67.9656L162.865 68.4157V69.766L162.218 70.2161V71.5664L161.572 72.0165V73.3668L160.926 73.8169V75.1672L160.279 75.6173V77.8678L159.633 78.3179V80.5685L158.987 81.0186V83.7192L158.341 84.1693V88.2202L157.694 88.6703V94.5217L158.341 94.9718V96.3221L158.987 96.7722V97.2223L159.633 97.6724V98.5726L160.279 99.0227V99.9229L160.926 100.373V100.823L161.572 101.273V101.723L162.218 102.173V102.624L162.865 103.074V105.324L162.218 105.774V111.175L161.572 111.626V128.73L162.218 129.18V131.43L164.157 130.08V129.63L168.681 126.479V125.129L168.035 124.679V123.778L167.389 123.328V122.428L166.742 121.978V119.727L166.096 119.277V113.426L166.742 112.976V106.674L167.389 106.224V102.173L168.035 101.723V98.1225L168.681 97.6724V94.9718L169.328 94.5217V91.821L169.974 91.3709V89.5705L170.62 89.1204V87.32L171.266 86.8699V85.0695L171.913 84.6194V82.819L172.559 82.3689V81.4687L173.205 81.0186V79.2182L173.852 78.768V77.8678L174.498 77.4177V76.0674L175.144 75.6173V74.7171L175.79 74.267V73.3668L176.437 72.9167V72.0165L177.083 71.5664V70.6662L177.729 70.2161V69.3159L178.376 68.8658V67.9656L179.022 67.5155V66.6153L179.668 66.1652V65.7151L180.314 65.2649V64.3647L180.961 63.9146V63.0144L181.607 62.5643V62.1142L182.253 61.6641V61.214L182.9 60.7639V59.8637L183.546 59.4136V58.9635L184.192 58.5134V57.6132L184.838 57.1631V56.713L185.485 56.2629V55.8128L186.131 55.3627V54.9126L186.777 54.4625V54.0124L187.424 53.5623V52.6621L188.07 52.2119V51.7618L188.716 51.3117V50.8616L189.362 50.4115V49.9614L190.009 49.5113V49.0612L190.655 48.6111V47.7109L191.301 47.2608V46.8107L192.594 45.9105V45.4604L193.24 45.0103L193.886 45.4604V46.3606L192.594 47.2608V47.7109L191.948 48.161V49.0612L191.301 49.5113V49.9614L190.655 50.4115V50.8616L190.009 51.3117V51.7618L189.362 52.2119V53.1122L188.716 53.5623V54.0124L188.07 54.4625V54.9126L187.424 55.3627V56.2629L186.777 56.713V57.6132L186.131 58.0633V58.9635L185.485 59.4136V59.8637L184.838 60.3138V61.214L184.192 61.6641V62.5643L183.546 63.0144V63.4645L182.9 63.9146V64.8148L182.253 65.2649V66.6153L181.607 67.0654V67.9656L180.961 68.4157V69.3159L180.314 69.766V70.6662L179.668 71.1163V72.4666L179.022 72.9167V73.8169L178.376 74.267V75.6173L177.729 76.0674V77.4177L177.083 77.8678V79.2182L176.437 79.6683V81.0186L175.79 81.4687V83.2691L175.144 83.7192V85.5196L174.498 85.9697V87.7701L173.852 88.2202V90.0206L173.205 90.4707V93.1714L172.559 93.6215V95.4219L171.913 95.872V98.5726L171.266 99.0227V102.173L170.62 102.624V106.224L169.974 106.674V112.076L169.328 112.526V119.727V118.827L169.974 118.377V117.477L170.62 117.027V116.127L171.266 115.677V114.776L171.913 114.326V113.876L172.559 113.426V112.976L173.205 112.526V112.076L173.852 111.626V111.175L180.314 106.674H180.961L182.253 105.774H182.9L183.546 105.324H184.192L184.838 104.874H185.485L186.131 104.424H187.424L188.07 103.974H189.362L190.009 103.524H192.594L193.24 103.074H195.179H190.655L190.009 102.624H185.485L184.838 103.074H184.192L183.546 102.624L186.777 100.373V99.9229L188.07 99.0227V98.5726L188.716 98.1225V97.6724L189.362 97.2223V96.7722L190.009 96.3221V95.872L190.655 95.4219V94.9718L191.301 94.5217V94.0716L190.009 94.9718L189.362 94.5217V94.0716L191.948 92.2712V91.821L193.886 90.4707V90.0206L194.533 89.5705V89.1204L195.179 88.6703V88.2202L196.472 87.32V86.8699L197.118 86.4198V85.9697L197.764 85.5196V85.0695L198.41 84.6194V83.7192L199.057 83.2691V82.819L199.703 82.3689V81.4687L200.349 81.0186V80.5685L200.996 80.1184V79.2182L201.642 78.768V78.3179L202.288 77.8678V76.5175L202.935 76.0674V75.1672L203.581 74.7171V73.8169L204.227 73.3668V72.0165L204.873 71.5664V69.766L205.52 69.3159V67.9656L206.166 67.5155V65.7151H205.52L204.227 66.6153H203.581L202.935 67.0654H202.288L200.996 67.9656H200.349L199.703 68.4157H199.057L198.41 68.8658H197.764L197.118 68.4157L199.703 66.6153H200.349V66.1652L200.996 65.7151H201.642L207.459 61.6641V61.214L209.397 59.8637V58.9635L210.044 58.5134V58.0633L210.69 57.6132V56.713L211.336 56.2629V55.8128L211.983 55.3627V54.9126L212.629 54.4625V53.1122L213.275 52.6621V51.7618L213.921 51.3117V50.4115L214.568 49.9614L213.921 50.4115L213.275 49.9614V49.5113L213.921 49.0612V48.6111L214.568 48.161V47.7109L215.214 47.2608V45.4604L215.86 45.0103V43.2099L216.507 42.7598V40.5093L217.153 40.0592V37.3585L217.799 36.9084V26.106L217.153 25.6558V23.4053L216.507 22.9552V21.6049L215.86 21.1548V19.8045L215.214 19.3544V18.9043H213.921Z" fill="url(#paint13_linear_229_287)"/>
<path d="M22.6201 29.2567L21.9738 29.7068H21.3275L20.035 30.607V33.3076L20.6813 33.7577V34.2079L21.3275 34.658H21.9738L22.6201 35.1081H51.7031L52.3494 34.658H52.9957L54.2882 33.7577V33.3076L54.9345 32.8575V30.1569L54.2882 29.7068H45.2402L44.5939 29.2567H22.6201Z" fill="url(#paint14_linear_229_287)"/>
<path d="M68.5065 29.2567L67.8602 29.7068H67.2139L66.5676 30.1569V33.3076L67.2139 33.7577V34.2079H67.8602L68.5065 34.658H98.882L100.175 33.7577V33.3076L100.821 32.8575V31.0571L98.882 29.7068H97.5895L96.9432 29.2567H68.5065Z" fill="url(#paint15_linear_229_287)"/>
<path d="M28.4367 36.9084L27.7904 37.3586V42.7598L27.1441 43.2099V49.9614L26.4978 50.4115V56.713L25.8516 57.1631V63.0144L25.2053 63.4645V70.2161L24.559 70.6662V76.9676L23.9127 77.4178V83.7192L23.2664 84.1693V90.4707L22.6201 90.9209V91.8211H27.1441V90.0206L27.7904 89.5705V83.7192L28.4367 83.2691V76.9676L29.083 76.5175V69.766L29.7293 69.3159V62.5643L30.3756 62.1142V54.0124L31.0219 53.5623V43.2099L31.6682 42.7598V39.6091L32.9607 38.7089L33.607 39.159V41.8596L34.2533 42.3097V44.1101L33.607 44.5602V54.4625L32.9607 54.9126V62.1142L32.3144 62.5643V69.766L31.6682 70.2161V76.9676L31.0219 77.4178V83.7192L30.3756 84.1693V90.4707L29.7293 90.9209V91.8211H33.607V86.4198L34.2533 85.9697V81.0186L34.8996 80.5685V75.6173L35.5459 75.1672V70.2161L36.1922 69.766V64.8149L36.8385 64.3648V58.5134L37.4847 58.0633V51.3118L38.131 50.8617V42.3097L38.7773 41.8596V39.159L39.4236 38.7089H40.0699L40.7162 39.159V53.5623L40.0699 54.0124V60.7639L39.4236 61.214V65.7151L38.7773 66.1652V70.6662L38.131 71.1163V76.0674L37.4847 76.5175V81.9188L36.8385 82.3689V87.32L36.1922 87.7701V91.8211H50.4105V37.3586H29.083L28.4367 36.9084Z" fill="url(#paint16_linear_229_287)"/>
<path d="M72.3842 36.9084L71.7379 37.3586V49.9614L71.0916 50.4115V71.5664L70.4454 72.0165V89.5705L69.7991 90.0206V91.8211H82.7248V84.1693L82.0785 83.7192V72.4666L81.4323 72.0165V58.0633L80.786 57.6132V43.2099L81.4323 42.7598V40.5093L82.0785 40.0592V39.6091L82.7248 39.159L83.3711 39.6091V40.0592L84.0174 40.5093V67.9656L84.6637 68.4157V81.0186L85.31 81.4687V91.8211H89.1877V82.819L88.5414 82.3689V71.5664L87.8951 71.1163V40.9594L88.5414 40.5093V39.6091L89.1877 39.159L90.4803 40.0592V67.9656L91.1266 68.4157V81.0186L91.7729 81.4687V91.371L92.4192 91.8211H96.2969V91.371L95.6506 90.9209L96.2969 90.4707L95.6506 90.0206V64.8149L95.0043 64.3648V37.3586H73.0305L72.3842 36.9084Z" fill="url(#paint17_linear_229_287)"/>
<path d="M21.3275 94.0717L20.6812 94.5218H20.0349L18.7424 95.422V95.8721L18.0961 96.3222V98.5727L18.7424 99.0228V99.4729L19.3886 99.923H20.0349L20.6812 100.373H53.6419L54.2882 99.923H54.9345V99.4729L55.5808 99.0228V97.2224L54.9345 96.7723V95.8721L54.2882 95.422H53.6419L52.9956 94.9719H52.3493L51.7031 94.5218H34.2533L33.607 94.0717H21.3275Z" fill="url(#paint18_linear_229_287)"/>
<path d="M69.1529 94.0717L68.5066 94.5218H67.8603L67.214 94.9719H66.5677V95.422L65.2751 96.3222V99.0228L66.5677 99.923H67.214L67.8603 100.373H77.5546L78.2009 99.923H93.0655L93.7118 100.373H99.5284L100.175 99.923H100.821L101.467 99.4729V99.0228L102.114 98.5727V96.7723L101.467 96.3222V95.8721L99.5284 94.5218H98.8821L98.2358 94.0717H69.1529Z" fill="url(#paint19_linear_229_287)"/>
<path d="M93.7118 102.173L93.0655 102.624H80.786L80.1397 103.074H56.227L55.5808 102.624H10.9869L10.3406 103.074H9.6943L9.04801 103.524V103.974L8.40172 104.424V104.874L7.75543 105.324V107.125L8.40172 107.575V108.025L9.6943 108.925H107.284L107.93 108.475H109.223L111.162 107.125V103.524L109.869 102.624H109.223L108.576 102.173H93.7118Z" fill="url(#paint20_linear_229_287)"/>
<path d="M2.58515 111.175L1.93886 111.626H1.29258L0.646288 112.076V112.526L0 112.976V115.677L0.646288 116.127V116.577L1.93886 117.477H116.332L116.978 117.027H117.624L118.271 116.577V116.127L118.917 115.677V112.526L118.271 112.076V111.626H117.624L116.978 111.175H20.0349L19.3886 111.626H14.8646L14.2183 111.175L13.5721 111.626H11.6332L10.9869 111.175H2.58515Z" fill="url(#paint21_linear_229_287)"/>
<defs>
<linearGradient id="paint0_linear_229_287" x1="59.4585" y1="111.175" x2="59.4585" y2="117.477" gradientUnits="userSpaceOnUse">
<stop stop-color="#51C814"/>
<stop offset="1" stop-color="#28620A"/>
</linearGradient>
<linearGradient id="paint1_linear_229_287" x1="59.4585" y1="102.173" x2="59.4585" y2="108.925" gradientUnits="userSpaceOnUse">
<stop stop-color="#51C814"/>
<stop offset="1" stop-color="#28620A"/>
</linearGradient>
<linearGradient id="paint2_linear_229_287" x1="83.6944" y1="94.0717" x2="83.6944" y2="100.373" gradientUnits="userSpaceOnUse">
<stop stop-color="#51C814"/>
<stop offset="1" stop-color="#28620A"/>
</linearGradient>
<linearGradient id="paint3_linear_229_287" x1="36.8384" y1="94.0717" x2="36.8384" y2="100.373" gradientUnits="userSpaceOnUse">
<stop stop-color="#51C814"/>
<stop offset="1" stop-color="#28620A"/>
</linearGradient>
<linearGradient id="paint4_linear_229_287" x1="83.048" y1="36.9084" x2="83.048" y2="91.8211" gradientUnits="userSpaceOnUse">
<stop stop-color="#51C814"/>
<stop offset="1" stop-color="#28620A"/>
</linearGradient>
<linearGradient id="paint5_linear_229_287" x1="36.5153" y1="36.9084" x2="36.5153" y2="91.8211" gradientUnits="userSpaceOnUse">
<stop stop-color="#51C814"/>
<stop offset="1" stop-color="#28620A"/>
</linearGradient>
<linearGradient id="paint6_linear_229_287" x1="83.6943" y1="29.2567" x2="83.6943" y2="34.658" gradientUnits="userSpaceOnUse">
<stop stop-color="#51C814"/>
<stop offset="1" stop-color="#28620A"/>
</linearGradient>
<linearGradient id="paint7_linear_229_287" x1="37.4847" y1="29.2567" x2="37.4847" y2="35.1081" gradientUnits="userSpaceOnUse">
<stop stop-color="#51C814"/>
<stop offset="1" stop-color="#28620A"/>
</linearGradient>
<linearGradient id="paint8_linear_229_287" x1="187.747" y1="18.9043" x2="187.747" y2="131.43" gradientUnits="userSpaceOnUse">
<stop stop-color="#51C814"/>
<stop offset="1" stop-color="#28620A"/>
</linearGradient>
<linearGradient id="paint9_linear_229_287" x1="61.7205" y1="2.70056" x2="61.7205" y2="23.4053" gradientUnits="userSpaceOnUse">
<stop stop-color="#51C814"/>
<stop offset="1" stop-color="#28620A"/>
</linearGradient>
<linearGradient id="paint10_linear_229_287" x1="134.751" y1="0" x2="134.751" y2="116.577" gradientUnits="userSpaceOnUse">
<stop stop-color="#51C814"/>
<stop offset="1" stop-color="#28620A"/>
</linearGradient>
<linearGradient id="paint11_linear_229_287" x1="134.751" y1="0" x2="134.751" y2="116.577" gradientUnits="userSpaceOnUse">
<stop stop-color="#51C814"/>
<stop offset="1" stop-color="#28620A"/>
</linearGradient>
<linearGradient id="paint12_linear_229_287" x1="61.7205" y1="2.70056" x2="61.7205" y2="23.4053" gradientUnits="userSpaceOnUse">
<stop stop-color="#51C814"/>
<stop offset="1" stop-color="#28620A"/>
</linearGradient>
<linearGradient id="paint13_linear_229_287" x1="187.747" y1="18.9043" x2="187.747" y2="131.43" gradientUnits="userSpaceOnUse">
<stop stop-color="#51C814"/>
<stop offset="1" stop-color="#28620A"/>
</linearGradient>
<linearGradient id="paint14_linear_229_287" x1="37.4848" y1="29.2567" x2="37.4848" y2="35.1081" gradientUnits="userSpaceOnUse">
<stop stop-color="#51C814"/>
<stop offset="1" stop-color="#28620A"/>
</linearGradient>
<linearGradient id="paint15_linear_229_287" x1="83.6943" y1="29.2567" x2="83.6943" y2="34.658" gradientUnits="userSpaceOnUse">
<stop stop-color="#51C814"/>
<stop offset="1" stop-color="#28620A"/>
</linearGradient>
<linearGradient id="paint16_linear_229_287" x1="36.5153" y1="36.9084" x2="36.5153" y2="91.8211" gradientUnits="userSpaceOnUse">
<stop stop-color="#51C814"/>
<stop offset="1" stop-color="#28620A"/>
</linearGradient>
<linearGradient id="paint17_linear_229_287" x1="83.048" y1="36.9084" x2="83.048" y2="91.8211" gradientUnits="userSpaceOnUse">
<stop stop-color="#51C814"/>
<stop offset="1" stop-color="#28620A"/>
</linearGradient>
<linearGradient id="paint18_linear_229_287" x1="36.8384" y1="94.0717" x2="36.8384" y2="100.373" gradientUnits="userSpaceOnUse">
<stop stop-color="#51C814"/>
<stop offset="1" stop-color="#28620A"/>
</linearGradient>
<linearGradient id="paint19_linear_229_287" x1="83.6944" y1="94.0717" x2="83.6944" y2="100.373" gradientUnits="userSpaceOnUse">
<stop stop-color="#51C814"/>
<stop offset="1" stop-color="#28620A"/>
</linearGradient>
<linearGradient id="paint20_linear_229_287" x1="59.4585" y1="102.173" x2="59.4585" y2="108.925" gradientUnits="userSpaceOnUse">
<stop stop-color="#51C814"/>
<stop offset="1" stop-color="#28620A"/>
</linearGradient>
<linearGradient id="paint21_linear_229_287" x1="59.4585" y1="111.175" x2="59.4585" y2="117.477" gradientUnits="userSpaceOnUse">
<stop stop-color="#51C814"/>
<stop offset="1" stop-color="#28620A"/>
</linearGradient>
</defs>
</svg>
